<svg height="512pt" viewBox="-67 0 512 512.001" width="512pt" xmlns="http://www.w3.org/2000/svg"><path d="m109.699219 207.640625v-15.679687c0-4.140626-3.359375-7.5-7.5-7.5s-7.5 3.359374-7.5 7.5v15.679687c0 4.144531 3.359375 7.5 7.5 7.5s7.5-3.355469 7.5-7.5zm0 0"/><path d="m282.976562 207.640625v-15.679687c0-4.140626-3.355468-7.5-7.5-7.5-4.140624 0-7.5 3.359374-7.5 7.5v15.679687c0 4.144531 3.359376 7.5 7.5 7.5 4.144532 0 7.5-3.355469 7.5-7.5zm0 0"/><path d="m188.839844 223.511719c10.496094 0 20.351562-4.382813 27.027344-12.023438 2.726562-3.121093 2.410156-7.855469-.710938-10.585937-3.117188-2.722656-7.855469-2.40625-10.582031.710937-3.832031 4.382813-9.566407 6.898438-15.734375 6.898438-6.171875 0-11.90625-2.515625-15.738282-6.898438-2.726562-3.117187-7.464843-3.433593-10.582031-.710937-3.121093 2.726562-3.4375 7.464844-.710937 10.585937 6.679687 7.640625 16.53125 12.023438 27.03125 12.023438zm0 0"/><path d="m188.839844 0c-51.203125 0-99.136719 20.164062-134.96875 56.78125-2.894532 2.960938-2.84375 7.710938.117187 10.605469 2.960938 2.898437 7.710938 2.847656 10.605469-.113281 32.984375-33.710938 77.109375-52.273438 124.246094-52.273438 95.851562 0 173.835937 77.984375 173.835937 173.839844 0 38.339844-15.234375 71.058594-38.113281 108.386718-7.347656 11.988282-15.183594 21.707032-22.761719 31.105469-11.292969 14.003907-22.007812 27.289063-30.21875 46.433594h-165.488281c-8.210938-19.144531-18.925781-32.429687-30.21875-46.433594-7.578125-9.398437-15.414062-19.117187-22.761719-31.105469-22.875-37.328124-38.113281-70.046874-38.113281-108.386718 0-35.746094 10.777344-70.089844 31.160156-99.320313 2.371094-3.394531 1.539063-8.070312-1.859375-10.441406-3.398437-2.367187-8.074219-1.535156-10.441406 1.863281-22.152344 31.753906-33.859375 69.066406-33.859375 107.898438 0 41.851562 16.121094 76.730468 40.324219 116.226562 7.851562 12.8125 16 22.914063 23.875 32.679688 10 12.402344 19.511719 24.203125 26.8125 40.03125-9.632813 4.765625-16.273438 14.695312-16.273438 26.148437 0 12.347657 7.722657 22.921875 18.585938 27.167969-3.089844 4.625-4.898438 10.179688-4.898438 16.152344 0 16.078125 13.082031 29.160156 29.160157 29.160156h27.484374v3.902344c0 17.472656 14.21875 31.691406 31.695313 31.691406h24.148437c17.472657 0 31.691407-14.21875 31.691407-31.691406v-3.902344h27.484375c16.078125 0 29.160156-13.082031 29.160156-29.160156 0-5.632813-1.609375-10.890625-4.382812-15.355469 12.074218-3.5625 20.917968-14.75 20.917968-27.964844 0-12.363281-7.738281-22.949219-18.625-27.183593 7.234375-15.304688 16.539063-26.871094 26.316406-38.996094 7.878907-9.769532 16.023438-19.867188 23.875-32.679688 24.207032-39.496094 40.324219-74.375 40.324219-116.230468 0-104.125-84.710937-188.835938-188.835937-188.835938zm28.765625 480.304688c0 9.207031-7.488281 16.695312-16.691407 16.695312h-24.148437c-9.207031 0-16.695313-7.488281-16.695313-16.695312v-3.902344h57.535157zm59.019531-62.21875h-39.734375c-4.144531 0-7.5 3.355468-7.5 7.5 0 4.140624 3.355469 7.5 7.5 7.5h23.199219c7.808594 0 14.160156 6.351562 14.160156 14.160156s-6.351562 14.160156-14.160156 14.160156h-142.503906c-7.804688 0-14.160157-6.351562-14.160157-14.160156s6.355469-14.160156 14.160157-14.160156h89.304687c4.140625 0 7.5-3.359376 7.5-7.5 0-4.144532-3.359375-7.5-7.5-7.5h-102.992187c-7.808594 0-14.160157-6.351563-14.160157-14.160157 0-7.300781 5.550781-13.324219 12.65625-14.078125.511719-.054687 1.015625-.082031 1.503907-.082031h172.722656c7.808594 0 14.160156 6.351563 14.160156 14.160156.003906 7.808594-6.351562 14.160157-14.15625 14.160157zm0 0"/></svg>