<svg height="512pt" viewBox="-69 0 512 512" width="512pt" xmlns="http://www.w3.org/2000/svg"><path d="m112.511719 208.535156v12.136719c0 4.144531 3.359375 7.5 7.5 7.5s7.5-3.355469 7.5-7.5v-12.136719c0-4.140625-3.359375-7.5-7.5-7.5s-7.5 3.359375-7.5 7.5zm0 0"/><path d="m246.648438 208.535156v12.136719c0 4.144531 3.359374 7.5 7.5 7.5 4.144531 0 7.5-3.355469 7.5-7.5v-12.136719c0-4.140625-3.355469-7.5-7.5-7.5-4.140626 0-7.5 3.359375-7.5 7.5zm0 0"/><path d="m187.082031 234.652344c8.613281 0 16.707031-3.605469 22.199219-9.886719 2.726562-3.121094 2.40625-7.859375-.710938-10.585937-3.117187-2.726563-7.855468-2.40625-10.582031.710937-2.644531 3.027344-6.621093 4.761719-10.90625 4.761719-4.289062 0-8.265625-1.734375-10.90625-4.757813-2.726562-3.121093-7.464843-3.4375-10.585937-.710937-3.117188 2.722656-3.4375 7.460937-.710938 10.582031 5.492188 6.28125 13.585938 9.886719 22.203125 9.886719zm0 0"/><path d="m188.980469 425.539062c3.4375 0 6.878906-2.351562 6.878906-4.886718v-5.246094c21.171875-3.4375 35.648437-17.007812 35.648437-39.449219 0-24.429687-19.183593-32.933593-35.648437-39.089843v-26.421876c11.761719.90625 15.199219 6.699219 21.171875 6.699219 7.960938 0 11.21875-9.953125 11.21875-14.839843 0-12.488282-21.171875-15.382813-32.390625-15.746094v-4.523438c0-2.53125-3.441406-4.886718-6.878906-4.886718-3.980469 0-6.875 2.355468-6.875 4.886718v5.066406c-19.183594 2.714844-36.195313 13.753907-36.195313 36.738282 0 23.164062 19.546875 30.945312 36.195313 37.277344v29.316406c-13.390625-2.351563-19.546875-13.027344-27.144531-13.027344-6.878907 0-12.308594 9.046875-12.308594 15.199219 0 11.582031 17.738281 22.800781 39.453125 23.527343v4.523438c0 2.53125 2.894531 4.882812 6.875 4.882812zm5.066406-59.535156c6.515625 3.074219 11.039063 6.875 11.039063 12.847656 0 6.515626-4.882813 9.953126-11.039063 11.402344zm-21.714844-44.882812c0-4.339844 3.4375-8.503906 11.582031-10.132813v21.535157c-6.875-2.894532-11.582031-6.152344-11.582031-11.402344zm0 0"/><path d="m312.058594 458.28125c-3.15625 2.683594-3.535156 7.417969-.851563 10.570312 2.683594 3.15625 7.417969 3.535157 10.574219.851563 31.285156-26.632813 49.257812-64.46875 51.976562-109.425781 4.113282-68.105469-26.742187-144.1875-84.875-209.921875 3.070313-2.859375 5.289063-6.515625 6.378907-10.667969 1.515625-5.78125.691406-11.808594-2.328125-16.96875-1.789063-3.066406-4.269532-5.601562-7.171875-7.476562 3.042969-6.480469 3.117187-14.398438-.476563-21.066407-2.082031-3.867187-5.238281-6.964843-8.96875-8.9375 18.8125-26.082031 21.117188-49.273437 14.214844-61.871093-4.351562-7.933594-12.425781-11.8125-21.609375-10.378907-7.875 1.226563-10.253906-.710937-14.578125-4.230469-4.542969-3.695312-10.765625-8.757812-22.953125-8.757812-13.332031 0-21.375 6.109375-27.835937 11.019531-5.476563 4.160157-9.433594 7.167969-15.976563 7.167969s-10.5-3.007812-15.980469-7.167969c-6.460937-4.910156-14.503906-11.019531-27.835937-11.019531-12.1875 0-18.410157 5.0625-22.949219 8.757812-4.324219 3.519532-6.707031 5.457032-14.582031 4.226563-9.222657-1.441406-17.320313 2.476563-21.660157 10.476563-4.414062 8.140624-4.652343 19.757812-.671874 32.703124 2.898437 9.421876 7.902343 19.160157 14.695312 28.703126-4.054688 1.941406-7.496094 5.191406-9.714844 9.3125-3.59375 6.667968-3.519531 14.585937-.476562 21.0625-2.902344 1.875-5.382813 4.414062-7.175782 7.480468-3.015624 5.160156-3.839843 11.1875-2.324218 16.96875 1.089844 4.152344 3.308594 7.8125 6.378906 10.667969-37.027344 41.882813-63.339844 88.457031-76.285156 135.1875-13.457032 48.570313-11.789063 94.277344 4.816406 132.179687 26.640625 60.792969 88.171875 94.273438 173.269531 94.273438 42.71875 0 79.472657-8.335938 109.238281-24.777344 3.625-2 4.941407-6.5625 2.9375-10.191406-2-3.625-6.566406-4.9375-10.191406-2.9375-27.515625 15.199219-61.832031 22.90625-101.984375 22.90625-78.773437 0-135.429687-30.292969-159.527343-85.292969-15.207032-34.707031-16.625-76.945312-4.101563-122.15625 12.574219-45.398437 38.5-90.785156 75.105469-131.5625 19.726562 8.507813 48.414062 13.605469 80.636718 14.320313 5.257813.117187 10.515626.117187 15.773438 0 32.222656-.714844 60.910156-5.8125 80.632812-14.320313 28.191407 31.386719 49.804688 65.054688 64.273438 100.144531 14.28125 34.628907 20.816406 69.636719 18.90625 101.238282-2.464844 40.785156-18.621094 74.988281-46.722656 98.910156zm-38.011719-316.113281c-17.65625 8.9375-47.324219 14.503906-80.304687 15.164062-4.441407.089844-8.882813.074219-13.324219 0-32.984375-.664062-62.652344-6.226562-80.3125-15.167969-1.140625-.578124-2.238281-1.171874-3.277344-1.78125-3.476563-2.03125-4.679687-6.617187-2.648437-10.09375 1.265624-2.171874 3.480468-3.511718 5.976562-3.640624 18.960938 10.433593 48.984375 16.546874 83.21875 16.957031.0625 0 .132812.003906.199219.003906 2.339843.027344 4.679687.027344 7.019531 0 .050781 0 .105469-.003906.160156-.003906 34.246094-.40625 64.28125-6.519531 83.25-16.957031 2.496094.128906 4.710938 1.46875 5.980469 3.636718 2.027344 3.46875.800781 8.082032-2.648437 10.097656-1.039063.609376-2.136719 1.199219-3.289063 1.785157zm-176.289063-111.554688c1.320313-2.433593 3.160157-3.269531 6.160157-2.804687 14.46875 2.257812 21.0625-3.105469 26.363281-7.414063 3.84375-3.132812 6.625-5.394531 13.480469-5.394531 8.28125 0 12.90625 3.515625 18.761719 7.964844 6.308593 4.792968 13.457031 10.222656 25.054687 10.222656 11.59375 0 18.742187-5.429688 25.050781-10.222656 5.855469-4.449219 10.484375-7.964844 18.761719-7.964844 6.855469 0 9.636719 2.261719 13.484375 5.394531 5.296875 4.308594 11.890625 9.675781 26.363281 7.414063 2.980469-.46875 4.816407.363281 6.136719 2.769531 4.101562 7.480469 2.128906 28.863281-20.269531 54.785156-.417969.222657-.816407.453125-1.203125.699219-7.5 4.757812-30.4375 12.808594-68.820313 12.808594-6.230469 0-12.40625-.21875-18.347656-.65625-4.039063-.292969-7.726563 2.839844-8.027344 6.933594-.296875 4.078124 2.855469 7.730468 6.933594 8.027343 6.304687.460938 12.847656.695313 19.441406.695313 39.0625 0 65.3125-7.820313 76.851563-15.140625.121094-.078125.242187-.136719.367187-.203125.128907-.066406.273438-.132813.441407-.207032.046874-.019531.089843-.046874.132812-.066406 1.296875-.523437 2.464844-.433594 3.28125-.222656 1.628906.429688 3.019531 1.585938 3.921875 3.257812 1.957031 3.632813.886719 8.421876-2.332031 10.464844-.519532.328125-1.046875.652344-1.589844.972656-.023438.011719-.050781.019532-.070312.035157-15.957032 9.3125-43.5625 15.109375-74.71875 15.800781-4.195313.089844-8.378907 0-12.574219 0-31.15625-.691406-58.761719-6.488281-74.71875-15.800781-.019531-.011719-.039063-.019531-.058594-.03125-4.089844-2.402344-6.398437-6.855469-3.929687-11.4375 1.566406-2.910157 5.125-4.476563 8.140624-2.5625 6.097657 3.867187 15.253907 7.296875 26.480469 9.917969 4.03125.941406 8.066407-1.5625 9.007813-5.597657.941406-4.03125-1.5625-8.066406-5.597656-9.007812-5.777344-1.351563-11.53125-3.035157-16.964844-5.4375-1.34375-.59375-4.019532-2.019531-4.058594-2.042969-22.085938-24.988281-25.808594-47.703125-21.335938-55.949219zm0 0"/></svg>