<svg x="0" y="0" width="700" height="350" viewBox="0 0 700 350" xmlns="http://www.w3.org/2000/svg" xmlns:xlink="http://www.w3.org/1999/xlink" xmlns:fi="http://pattern.flaticon.com/"><rect x="0px" y="0px" width="100%" height="100%" opacity="1" fill="#ffffff"/><defs><g transform="matrix(0.09201514720916748 0 0 0.09201514720916748 179.4745635986328 107.44400024414062)" id="L1_5"><path d="M288.672,244.259l-20.719-12.722l5.866-23.595c0.717-2.884-0.336-5.92-2.686-7.739c-2.35-1.82-5.553-2.081-8.165-0.665    l-21.377,11.583l-17.5-16.878c-2.139-2.063-5.294-2.668-8.046-1.543c-2.75,1.125-4.578,3.768-4.658,6.739l-0.658,24.304    l-23.367,6.717c-2.856,0.821-4.958,3.251-5.359,6.196s0.974,5.849,3.507,7.403l20.719,12.722l-5.866,23.595    c-0.717,2.884,0.336,5.92,2.686,7.739c2.349,1.82,5.552,2.081,8.165,0.665l21.377-11.583l17.5,16.878    c1.425,1.375,3.301,2.102,5.208,2.102c0.956,0,1.919-0.183,2.838-0.558c2.75-1.125,4.578-3.768,4.658-6.739l0.658-24.305    l23.367-6.717c2.856-0.821,4.958-3.251,5.359-6.196C292.58,248.718,291.205,245.813,288.672,244.259z M254.03,251.676    c-3.142,0.903-5.336,3.737-5.425,7.005l-0.346,12.791l-9.208-8.881c-1.433-1.382-3.311-2.102-5.208-2.102    c-1.219,0-2.447,0.297-3.571,0.906l-11.25,6.095l3.087-12.416c0.789-3.172-0.568-6.49-3.354-8.201l-10.903-6.694l12.296-3.535    c3.142-0.903,5.336-3.737,5.425-7.005l0.346-12.79l9.209,8.881c2.354,2.27,5.906,2.752,8.779,1.196l11.249-6.095l-3.087,12.416    c-0.789,3.172,0.568,6.49,3.354,8.201l10.903,6.694L254.03,251.676z"/><path d="M168.413,211.036l-73.446-25.079c-3.92-1.339-8.183,0.754-9.521,4.674c-1.338,3.92,0.754,8.182,4.674,9.521l73.446,25.079    c0.803,0.274,1.621,0.404,2.424,0.404c3.12,0,6.033-1.961,7.097-5.078C174.425,216.637,172.333,212.374,168.413,211.036z"/><path d="M223.508,164.176L195.81,69.011c-1.158-3.978-5.323-6.264-9.297-5.106c-3.977,1.157-6.263,5.32-5.105,9.297l27.697,95.167    c0.954,3.277,3.948,5.406,7.198,5.406c0.694,0,1.4-0.097,2.099-0.301C222.38,172.316,224.666,168.154,223.508,164.176z"/><path d="M354.574,92.46c-3.275-2.536-7.985-1.938-10.522,1.338l-63.808,82.392c-2.537,3.274-1.938,7.985,1.337,10.521    c1.367,1.058,2.982,1.571,4.587,1.571c2.24,0,4.457-1,5.935-2.908l63.808-82.392C358.447,99.707,357.849,94.996,354.574,92.46z"/><path d="M271.458,89.829c-4.045-0.901-8.051,1.647-8.951,5.69l-19.257,86.473c-0.901,4.044,1.647,8.051,5.69,8.951    c0.549,0.123,1.097,0.182,1.637,0.182c3.437,0,6.536-2.378,7.314-5.872l19.257-86.473    C278.048,94.737,275.501,90.73,271.458,89.829z"/><path d="M193.937,184.308l-37.923-42.677c-2.751-3.096-7.491-3.376-10.588-0.625c-3.096,2.751-3.376,7.492-0.625,10.588    l37.923,42.678c1.482,1.668,3.541,2.518,5.609,2.518c1.771,0,3.55-0.625,4.979-1.894    C196.408,192.145,196.688,187.404,193.937,184.308z"/><path d="M168.966,249.544c-0.326-4.13-3.934-7.21-8.067-6.887l-43.2,3.414c-4.129,0.326-7.212,3.938-6.886,8.067    c0.31,3.928,3.594,6.91,7.468,6.91c0.198,0,0.398-0.008,0.599-0.024l43.2-3.413C166.209,257.285,169.292,253.673,168.966,249.544z    "/><path d="M198.105,20.556c-0.792-6.235-3.966-11.789-8.936-15.638c-10.259-7.945-25.068-6.062-33.015,4.196    c-7.945,10.261-6.062,25.071,4.197,33.017c4.166,3.227,9.176,4.931,14.361,4.931c1,0,2.007-0.063,3.015-0.192    c6.235-0.792,11.789-3.966,15.638-8.936S198.898,26.792,198.105,20.556z M181.505,28.749c-1.396,1.802-3.409,2.953-5.67,3.24    c-2.259,0.287-4.499-0.323-6.3-1.718c-1.802-1.396-2.953-3.409-3.24-5.67c-0.286-2.262,0.324-4.499,1.719-6.3    c1.68-2.168,4.205-3.305,6.756-3.305c1.825,0,3.664,0.582,5.214,1.783c1.802,1.396,2.953,3.409,3.24,5.67    C183.511,24.71,182.901,26.947,181.505,28.749z"/><path d="M69.058,174.095c-0.793-6.235-3.966-11.789-8.936-15.638c-4.97-3.849-11.141-5.533-17.376-4.739    c-6.235,0.792-11.789,3.966-15.638,8.936c-3.849,4.97-5.532,11.141-4.739,17.376c0.793,6.235,3.966,11.789,8.936,15.638    c4.166,3.227,9.176,4.931,14.361,4.931c1-0.001,2.007-0.064,3.015-0.192c6.235-0.792,11.789-3.966,15.638-8.936    S69.851,180.33,69.058,174.095z M52.46,182.286c-1.395,1.801-3.409,2.953-5.67,3.24c-2.26,0.286-4.498-0.323-6.3-1.719    c-1.802-1.394-2.953-3.408-3.24-5.669c-0.288-2.261,0.323-4.498,1.718-6.3c1.396-1.802,3.409-2.953,5.67-3.24    c0.366-0.046,0.73-0.069,1.093-0.069c1.88,0,3.697,0.618,5.207,1.788c1.802,1.396,2.953,3.409,3.24,5.669    C54.466,178.247,53.855,180.485,52.46,182.286z"/><path d="M393.84,41.755c-4.97-3.849-11.141-5.532-17.376-4.739c-6.235,0.792-11.789,3.966-15.638,8.936    c-3.849,4.97-5.532,11.141-4.739,17.376c0.792,6.237,3.965,11.791,8.935,15.639c4.279,3.313,9.348,4.917,14.383,4.917    c7.035,0,14-3.134,18.631-9.114C405.981,64.512,404.099,49.701,393.84,41.755z M386.176,65.588    c-2.88,3.72-8.251,4.402-11.97,1.522c-1.802-1.396-2.953-3.409-3.24-5.67c-0.287-2.262,0.324-4.499,1.719-6.301    c1.396-1.802,3.409-2.953,5.67-3.24c0.366-0.047,0.731-0.069,1.093-0.069c1.88,0,3.697,0.618,5.207,1.787    C388.375,56.498,389.057,61.868,386.176,65.588z"/><path d="M328.998,367.2l-42.657-64.836c-2.277-3.46-6.928-4.419-10.388-2.143c-3.46,2.277-4.42,6.927-2.144,10.388l42.657,64.836    c1.441,2.19,3.833,3.378,6.272,3.378c1.415,0,2.845-0.4,4.115-1.235C330.315,375.312,331.274,370.661,328.998,367.2z"/><path d="M416.997,240.307l-99.069-3.008c-4.148-0.113-7.598,3.128-7.724,7.269c-0.125,4.141,3.129,7.599,7.269,7.725l99.069,3.008    c0.078,0.002,0.155,0.004,0.232,0.004c4.037,0,7.369-3.21,7.492-7.272C424.392,243.891,421.137,240.433,416.997,240.307z"/><path d="M377.914,172.273c-1.884-3.689-6.401-5.153-10.09-3.27l-78.905,40.279c-3.689,1.883-5.153,6.401-3.27,10.09    c1.326,2.597,3.957,4.092,6.686,4.092c1.147,0,2.312-0.264,3.404-0.822l78.905-40.279    C378.333,180.48,379.797,175.963,377.914,172.273z"/><path d="M356.641,297.005l-50.807-26.039c-3.686-1.889-8.205-0.433-10.095,3.253c-1.889,3.687-0.433,8.206,3.253,10.096    l50.807,26.039c1.095,0.562,2.264,0.827,3.415,0.827c2.724,0,5.352-1.489,6.68-4.08    C361.783,303.414,360.327,298.895,356.641,297.005z"/><path d="M265.109,360.233l-7.503-42.681c-0.717-4.08-4.608-6.805-8.685-6.088c-4.08,0.717-6.806,4.606-6.088,8.685l7.503,42.681    c0.64,3.641,3.805,6.203,7.378,6.203c0.431,0,0.868-0.038,1.307-0.115C263.101,368.201,265.827,364.312,265.109,360.233z"/><path d="M480.711,230.703c-4.97-3.849-11.141-5.532-17.376-4.739c-6.235,0.792-11.789,3.966-15.638,8.936    s-5.532,11.141-4.739,17.376c0.792,6.236,3.966,11.79,8.936,15.638c4.166,3.227,9.176,4.931,14.361,4.931    c1,0,2.007-0.063,3.016-0.191c6.235-0.793,11.789-3.966,15.638-8.936C492.852,253.459,490.97,238.648,480.711,230.703z     M473.047,254.534c-1.396,1.802-3.409,2.952-5.67,3.24c-2.26,0.287-4.498-0.323-6.3-1.718c-1.802-1.396-2.953-3.409-3.24-5.67    c-0.288-2.261,0.323-4.499,1.718-6.3c1.396-1.802,3.409-2.953,5.67-3.24c0.366-0.047,0.731-0.069,1.093-0.069    c1.88,0,3.697,0.618,5.207,1.787C475.245,245.443,475.928,250.814,473.047,254.534z"/><path d="M364.34,394.058c-10.259-7.945-25.069-6.063-33.015,4.196c-7.945,10.259-6.063,25.069,4.196,33.015    c4.166,3.227,9.176,4.931,14.361,4.931c1,0,2.007-0.063,3.016-0.192c6.235-0.792,11.789-3.966,15.638-8.936    C376.481,416.813,374.599,402.004,364.34,394.058z M356.677,417.888c-1.396,1.802-3.409,2.953-5.67,3.24    c-2.259,0.287-4.499-0.323-6.3-1.718c-3.72-2.88-4.402-8.25-1.521-11.97c1.396-1.802,3.409-2.952,5.67-3.24    c2.262-0.289,4.499,0.323,6.3,1.718C358.875,408.799,359.558,414.168,356.677,417.888z"/><path d="M185.999,298.704c-2.977-2.882-7.724-2.805-10.605,0.17c-3.729,3.85-91.78,95.526-132.94,202.941    c-1.482,3.868,0.452,8.205,4.32,9.687c0.883,0.338,1.79,0.499,2.682,0.499c3.017,0,5.861-1.833,7.005-4.818    c40.038-104.488,128.817-196.952,129.71-197.874C189.051,306.332,188.974,301.584,185.999,298.704z"/></g><g transform="matrix(0.09910748898983002 -0.058845072984695435 0.058845072984695435 0.09910748898983002 -3.117555618286133 113.86463165283203)" id="L1_10"><path d="m117.808594 278.398438c3.972656.007812 7.347656-2.902344 7.925781-6.835938.578125-3.929688-1.816406-7.6875-5.621094-8.828125-16.527343-4.957031-34.472656-23.101563-49.25-49.757813-2.140625-3.867187-7.007812-5.265624-10.875-3.125-3.867187 2.140626-5.265625 7.011719-3.125 10.875 16.800781 30.28125 38.160157 51.203126 58.640625 57.328126.746094.226562 1.523438.34375 2.304688.34375zm0 0"/><path d="m200.425781 100.609375c4.949219 11.144531 7.53125 23.195313 7.589844 35.390625 0 4.417969 3.582031 8 8 8s8-3.582031 8-8c-.054687-14.386719-3.089844-28.605469-8.910156-41.761719-7.414063-17.347656-19.234375-32.460937-34.289063-43.839843-3.535156-2.648438-8.546875-1.933594-11.199218 1.601562-2.652344 3.535156-1.933594 8.550781 1.597656 11.199219 12.835937 9.707031 22.902344 22.605469 29.210937 37.410156zm0 0"/><path d="m128.015625 48c7.292969.027344 14.53125 1.257812 21.425781 3.640625 4.183594 1.421875 8.730469-.816406 10.152344-5s-.816406-8.730469-5-10.152344c-8.554688-2.945312-17.53125-4.460937-26.578125-4.488281-4.417969 0-8 3.582031-8 8s3.582031 8 8 8zm0 0"/><path d="m280.113281 326.761719c-16.527343-4.960938-34.472656-23.105469-49.25-49.761719-2.140625-3.867188-7.007812-5.265625-10.875-3.125-3.867187 2.140625-5.265625 7.011719-3.125 10.878906 16.800781 30.277344 38.160157 51.199219 58.640625 57.324219 2.753906.878906 5.765625.203125 7.878906-1.765625 2.113282-1.96875 3-4.925781 2.324219-7.730469-.675781-2.808593-2.816406-5.035156-5.59375-5.820312zm0 0"/><path d="m340.816406 114.398438c-3.535156-2.648438-8.546875-1.933594-11.199218 1.601562-2.652344 3.535156-1.933594 8.550781 1.597656 11.199219 12.820312 9.699219 22.886718 22.578125 29.195312 37.359375 4.960938 11.160156 7.550782 23.230468 7.605469 35.441406 0 4.417969 3.582031 8 8 8s8-3.582031 8-8c-.054687-14.386719-3.089844-28.605469-8.910156-41.761719-7.414063-17.347656-19.234375-32.460937-34.289063-43.839843zm0 0"/><path d="m314.59375 100.488281c-8.554688-2.945312-17.53125-4.460937-26.578125-4.488281-4.417969 0-8 3.582031-8 8s3.582031 8 8 8c7.292969.027344 14.53125 1.257812 21.425781 3.640625 4.183594 1.421875 8.730469-.816406 10.152344-5s-.816406-8.730469-5-10.152344zm0 0"/><path d="m287.90625 64h-.128906c-16.136719.074219-32.074219 3.546875-46.777344 10.191406-20.566406-44.136718-64.308594-72.859375-112.984375-74.191406-68.183594 0-128 63.550781-128 136 0 62.664062 43.007813 147.839844 99.511719 170.175781l-3.398438 20.511719c-.386718 2.320312.269532 4.691406 1.789063 6.484375 1.515625 1.792969 3.75 2.828125 6.097656 2.828125h12.898437l-5.066406 15.199219c-5.515625 16.402343-3.089844 34.441406 6.570313 48.800781l5.941406 8.910156c6.882813 10.257813 8.609375 23.132813 4.671875 34.84375l-8.574219 25.742188c-1.398437 4.199218.875 8.730468 5.070313 10.128906 4.199218 1.394531 8.734375-.875 10.128906-5.074219l8.527344-25.75c5.519531-16.402343 3.09375-34.441406-6.566406-48.800781l-5.945313-8.910156c-6.890625-10.257813-8.621094-23.132813-4.679687-34.84375l6.785156-20.246094h18.238281c2.351563 0 4.582031-1.035156 6.101563-2.828125 1.519531-1.792969 2.171874-4.164063 1.789062-6.484375l-3.402344-20.496094c9.757813-3.917968 18.863282-9.292968 27.007813-15.945312 16.800781 33.722656 43.3125 67.082031 76 80.042968l-3.382813 20.398438c-.386718 2.320312.269532 4.691406 1.789063 6.484375 1.515625 1.792969 3.75 2.828125 6.097656 2.828125h12.898437l-5.066406 15.199219c-5.515625 16.402343-3.089844 34.441406 6.570313 48.800781l5.933593 8.894531c.640626.960938 1.234376 1.953125 1.785157 2.953125 1.402343 2.574219 4.101562 4.171875 7.03125 4.167969 1.335937 0 2.648437-.339844 3.816406-.984375 3.878906-2.113281 5.3125-6.96875 3.199219-10.847656-.800782-1.40625-1.597656-2.792969-2.511719-4.152344l-5.941406-8.910156c-6.894531-10.253906-8.621094-23.132813-4.683594-34.839844l6.730469-20.28125h18.238281c2.351563 0 4.582031-1.035156 6.101563-2.828125 1.519531-1.792969 2.171874-4.164063 1.789062-6.484375l-3.363281-20.253906c22.914062-8.945313 44.714843-28.539063 63.203125-57.394532 22.074218-33.804687 34.605468-72.945312 36.269531-113.285156-.167969-72.363281-60-135.753906-128.109375-135.753906zm-271.890625 72c0-63.929688 52.335937-120 112-120 42.953125 0 82.898437 28.214844 101.785156 71.910156 6.6875 15.15625 10.164063 31.527344 10.214844 48.089844-.015625 5.886719-.402344 11.761719-1.160156 17.601562-.925781 6.984376-2.261719 13.910157-4 20.742188-8.9375 36.695312-27.636719 70.289062-54.109375 97.222656-9.988282 9.953125-22.164063 17.429688-35.554688 21.839844-8.34375 2.589844-17.167968 3.257812-25.808594 1.953125-2.910156-.441406-5.78125-1.097656-8.597656-1.960937-52.488281-15.796876-94.769531-99-94.769531-157.398438zm97.441406 184 1.519531-9.175781c.472657.085937.9375.113281 1.40625.191406.472657.082031 1.167969.152344 1.753907.230469 3.230469.472656 6.488281.722656 9.753906.753906h.253906c3.261719-.027344 6.515625-.277344 9.746094-.742188.582031-.082031 1.175781-.136718 1.757813-.234374.585937-.09375.9375-.101563 1.410156-.191407l1.519531 9.167969zm189.121094 64h-29.121094l1.519531-9.175781c.902344.160156 1.808594.238281 2.703126.367187.753906.105469 1.496093.214844 2.25.304688 2.683593.3125 5.382812.480468 8.085937.503906h.21875c4.289063-.011719 8.574219-.398438 12.796875-1.152344zm63.726563-79.601562c-18.054688 28.144531-39.808594 46.699218-61.542969 53.089843-2.515625.75-5.078125 1.332031-7.671875 1.742188l-1.074219.152343c-5.332031.757813-10.746094.757813-16.078125 0-.671875-.09375-1.320312-.253906-1.984375-.375-2.1875-.371093-4.355469-.863281-6.488281-1.472656-32.472656-9.296875-59.335938-44.109375-75.566406-78.398437.476562-.480469.933593-1.023438 1.398437-1.511719 1-1.050781 1.984375-2.121094 2.96875-3.199219 1.167969-1.292969 2.324219-2.605469 3.472656-3.945312.972657-1.144531 1.925781-2.304688 2.878907-3.488281 1.121093-1.375 2.222656-2.777344 3.3125-4.207032.9375-1.234375 1.867187-2.480468 2.78125-3.746094 1.070312-1.453124 2.109374-2.929687 3.121093-4.421874.90625-1.3125 1.792969-2.632813 2.671875-4 1-1.519532 1.976563-3.066407 2.945313-4.625.855469-1.375 1.703125-2.761719 2.535156-4.167969.9375-1.601563 1.847656-3.199219 2.746094-4.800781.796875-1.449219 1.597656-2.886719 2.398437-4.34375.871094-1.601563 1.710938-3.28125 2.542969-4.925782.753906-1.488281 1.496094-2.96875 2.21875-4.464844.796875-1.6875 1.597656-3.386718 2.351563-5.082031.679687-1.511719 1.367187-3.015625 2.023437-4.535156.734375-1.71875 1.429687-3.457031 2.136719-5.191406.605468-1.527344 1.230468-3.046875 1.8125-4.578125.664062-1.757813 1.28125-3.519532 1.90625-5.285156.542968-1.527344 1.09375-3.058594 1.601562-4.59375.589844-1.792969 1.125-3.574219 1.671875-5.375.460938-1.511719.933594-3.023438 1.367188-4.535157.511719-1.816406.960937-3.632812 1.421875-5.457031.378906-1.480469.800781-2.960938 1.121094-4.441406.433593-1.863282.800781-3.703125 1.167968-5.550782.289063-1.425781.609375-2.855468.863282-4.273437.34375-1.933594.609374-3.839844.890624-5.75.191407-1.3125.429688-2.632813.589844-3.9375.265625-2.109375.433594-4.191406.609375-6.269531.09375-1.074219.230469-2.160156.304688-3.203125.199219-3.117188.308593-6.207031.308593-9.238281 0-4.34375-.253906-8.679688-.679687-12.992188-.144531-1.425781-.398437-2.839844-.582031-4.257812-.382813-2.894532-.800782-5.78125-1.367188-8.652344-.328125-1.65625-.746094-3.304688-1.136718-4.953125-.632813-2.640625-1.3125-5.265625-2.097657-7.878907-.511719-1.683593-1.0625-3.363281-1.640625-5.035156-.40625-1.191406-.71875-2.398437-1.160156-3.574218 12.710938-5.695313 26.480469-8.644532 40.410156-8.648438h.113282c59.589843 0 112 55.945312 112.117187 119.777344-1.621094 37.269531-13.265625 73.414062-33.710937 104.621094zm0 0"/></g><g transform="matrix(0.1249513179063797 0 0 0.1249513179063797 274 180)" id="L1_11"><path d="M327.417,301.136c-1.498-4.157-6.082-6.312-10.238-4.814c-4.157,1.498-6.312,6.082-4.814,10.238    c0.037,0.102,0.076,0.203,0.117,0.304c7.296,19.04,7.824,33.6,1.44,40c-7.744,7.728-27.032,5.312-51.608-6.448    c-32.902-17.084-62.809-39.402-88.552-66.08c-62.664-62.672-88.52-124.168-72.528-140.16c5.103-4.03,11.736-5.578,18.096-4.224    c4.406,0.324,8.241-2.986,8.565-7.392c0.313-4.259-2.774-8.013-7.013-8.528c-11.123-1.968-22.535,1.275-30.96,8.8    c-29.312,29.304,15.496,105.744,72.528,162.784c27.021,27.962,58.419,51.333,92.96,69.192c6.255,2.995,12.701,5.574,19.296,7.72    l-56.84,21.552c-75.9-28.856-130.539-96.144-143.2-176.352c-0.685-4.365-4.779-7.349-9.144-6.664    c-4.365,0.685-7.349,4.779-6.664,9.144c1.256,8,2.936,16,4.992,23.824c18.422,69.799,66.943,127.784,132.4,158.224l-93.552,35.4    c-0.429-0.716-0.969-1.358-1.6-1.904c-23.776-19.089-38.694-47.084-41.28-77.464l-3.712-44.952    c-0.292-4.355-4.06-7.649-8.416-7.357c-0.083,0.006-0.166,0.012-0.248,0.021c-4.404,0.35-7.691,4.205-7.341,8.609    c0.001,0.018,0.003,0.037,0.005,0.055l3.776,44.936c2.812,32.473,17.96,62.633,42.328,84.28l-66.736,25.264l12-49.248    c1.047-4.295-1.585-8.625-5.88-9.672c-4.295-1.047-8.625,1.585-9.672,5.88l-15.608,64c-1.052,4.291,1.574,8.623,5.866,9.674    c1.574,0.386,3.227,0.284,4.742-0.29l296-112c0.471-0.23,0.916-0.509,1.328-0.832c6.406-0.984,12.345-3.946,16.984-8.472    C333.161,350.256,339.985,333.912,327.417,301.136z"/><path d="M402.913,280.504c-43.247-16.19-89.99-20.729-135.544-13.16l-28.584,4.8c-4.339,0.834-7.18,5.027-6.346,9.366    c0.806,4.192,4.761,7.013,8.986,6.41l28.576-4.76c42.782-7.113,86.683-2.847,127.296,12.368c0.901,0.319,1.852,0.479,2.808,0.472    c4.418,0.007,8.006-3.568,8.013-7.987C408.124,284.668,406.048,281.673,402.913,280.504z"/><path d="M431.353,156.56c-1.9-3.99-6.674-5.684-10.664-3.784l-168,80c-3.989,1.899-5.684,6.672-3.785,10.662    c0,0.001,0.001,0.002,0.001,0.002c1.899,3.989,6.672,5.684,10.662,3.785c0.001,0,0.001-0.001,0.002-0.001l168-80    C431.559,165.324,433.253,160.55,431.353,156.56z"/><path d="M194.377,54.296c-0.88-4.33-5.103-7.127-9.433-6.247c-4.33,0.88-7.127,5.103-6.247,9.433    c0.019,0.096,0.041,0.191,0.064,0.286c10.126,45.239,5.953,92.507-11.944,135.272l-11.632,27.912    c-1.681,4.067,0.238,8.728,4.296,10.432c0.972,0.409,2.017,0.618,3.072,0.616c3.229,0,6.141-1.94,7.384-4.92l11.64-27.88    C200.752,153.391,205.225,102.757,194.377,54.296z"/><path d="M440.105,288c-13.255,0-24,10.745-24,24s10.745,24,24,24s24-10.745,24-24S453.36,288,440.105,288z M440.105,320    c-4.418,0-8-3.582-8-8s3.582-8,8-8s8,3.582,8,8S444.523,320,440.105,320z"/><path d="M248.105,64c-13.255,0-24,10.745-24,24s10.745,24,24,24s24-10.745,24-24S261.36,64,248.105,64z M248.105,96    c-4.418,0-8-3.582-8-8s3.582-8,8-8s8,3.582,8,8S252.523,96,248.105,96z"/><circle cx="176" cy="16" r="16"/><path d="M400.105,40c-4.418,0-8,3.582-8,8v8c0,4.418,3.582,8,8,8s8-3.582,8-8v-8C408.105,43.582,404.523,40,400.105,40z"/><path d="M400.105,0c-4.418,0-8,3.582-8,8v8c0,4.418,3.582,8,8,8s8-3.582,8-8V8C408.105,3.582,404.523,0,400.105,0z"/><path d="M424.105,24h-8c-4.418,0-8,3.582-8,8s3.582,8,8,8h8c4.418,0,8-3.582,8-8S428.523,24,424.105,24z"/><path d="M384.105,24h-8c-4.418,0-8,3.582-8,8s3.582,8,8,8h8c4.418,0,8-3.582,8-8S388.523,24,384.105,24z"/><path d="M344.105,87.832h-40.168c-4.418,0-8,3.582-8,8V136c0,4.418,3.582,8,8,8h40.168c4.418,0,8-3.582,8-8V95.832    C352.105,91.414,348.523,87.832,344.105,87.832z M336.105,128h-24.168v-24.168h24.168V128z"/><path d="M285.826,154.636c-2.937-3.135-7.825-3.391-11.073-0.58l-80,72c-3.282,2.956-3.547,8.013-0.592,11.296    c2.956,3.282,8.013,3.547,11.296,0.592l80-72C288.682,162.923,288.847,157.861,285.826,154.636z"/><path d="M432.105,184c-4.418,0-8,3.582-8,8v8c0,4.418,3.582,8,8,8s8-3.582,8-8v-8C440.105,187.582,436.523,184,432.105,184z"/><path d="M466.049,182.624l-5.656-5.656c-3.178-3.07-8.242-2.982-11.312,0.196c-2.994,3.1-2.994,8.015,0,11.116l5.656,5.656    c3.178,3.07,8.242,2.982,11.312-0.196C469.044,190.639,469.044,185.724,466.049,182.624z"/><path d="M472.105,152h-8c-4.418,0-8,3.582-8,8s3.582,8,8,8h8c4.418,0,8-3.582,8-8S476.523,152,472.105,152z"/><path d="M465.853,126.064c-3.1-2.994-8.015-2.994-11.116,0l-5.656,5.656c-3.124,3.125-3.123,8.19,0.002,11.314    c1.5,1.499,3.534,2.342,5.654,2.342v0c2.122,0,4.156-0.844,5.656-2.344l5.656-5.656    C469.119,134.198,469.031,129.133,465.853,126.064z"/><path d="M432.105,112c-4.418,0-8,3.582-8,8v8c0,4.418,3.582,8,8,8s8-3.582,8-8v-8C440.105,115.582,436.523,112,432.105,112z"/><path d="M415.129,131.72l-5.656-5.656c-3.178-3.069-8.242-2.982-11.312,0.196c-2.994,3.1-2.994,8.015,0,11.116l5.656,5.656    c3.178,3.07,8.242,2.982,11.312-0.196C418.124,139.735,418.124,134.82,415.129,131.72z"/><path d="M95.713,34.592c-0.942-2.894-3.445-5.002-6.456-5.44l-23.48-3.416L55.305,4.464c-2.334-3.963-7.439-5.284-11.402-2.95    c-1.218,0.717-2.233,1.732-2.95,2.95l-10.52,21.272l-23.48,3.416c-4.373,0.631-7.406,4.688-6.775,9.061    c0.251,1.741,1.069,3.35,2.327,4.579l16.984,16.56l-4,23.384c-0.768,4.351,2.136,8.501,6.487,9.269    c1.752,0.309,3.556,0.026,5.129-0.805l21-11.072l21,11.04c3.911,2.056,8.748,0.553,10.804-3.358    c0.819-1.557,1.101-3.34,0.804-5.074l-4-23.384l16.992-16.56C95.88,40.663,96.658,37.485,95.713,34.592z M62.505,50.832    c-1.884,1.835-2.745,4.479-2.304,7.072l1.984,11.56L51.825,64c-2.329-1.223-5.111-1.223-7.44,0l-10.4,5.456l1.984-11.56    c0.449-2.583-0.397-5.223-2.264-7.064l-8.408-8.184l11.608-1.688c2.606-0.378,4.859-2.015,6.024-4.376l5.176-10.504l5.184,10.504    c1.164,2.359,3.413,3.995,6.016,4.376l11.6,1.688L62.505,50.832z"/><path d="M453.081,401h-0.032l-3.296-4.944c-18.481-27.637-47.542-46.429-80.328-51.944c-4.374-0.624-8.426,2.416-9.05,6.79    c-0.603,4.226,2.218,8.181,6.41,8.986c23.648,4.014,45.199,16.028,61.048,34.032c-13.325,2.397-24.979,10.4-32,21.976    c-8.616,15.431-3.091,34.924,12.34,43.54c15.431,8.616,34.924,3.091,43.54-12.34c3.291-6.353,5.068-13.382,5.192-20.536    c8.512,12.363,9.193,28.508,1.752,41.544c-2.254,3.8-1.001,8.708,2.799,10.962c3.8,2.254,8.708,1.001,10.962-2.799    c0.072-0.122,0.141-0.245,0.207-0.371C487.273,449.732,478.645,416.671,453.081,401z M437.761,439.288    c-4.27,7.737-14.003,10.547-21.739,6.277s-10.547-14.003-6.277-21.739c0.024-0.043,0.048-0.087,0.072-0.13    c4.721-7.73,12.684-12.912,21.664-14.096c1.391-0.038,2.768,0.282,4,0.928C442.233,414.296,442.593,430.632,437.761,439.288z"/></g><g transform="matrix(0.11718818545341492 0 0 0.11718818545341492 92 171)" id="L1_12"><path d="M371.472,48.579c-1.291-3.937-5.53-6.08-9.464-4.79l-2.663,0.873v-2.913c0-4.143-3.358-7.5-7.5-7.5    c-4.142,0-7.5,3.357-7.5,7.5v2.914l-2.663-0.873c-3.935-1.287-8.173,0.854-9.464,4.79c-1.289,3.936,0.856,8.173,4.791,9.464    l2.764,0.907l-1.739,2.417c-3.585,4.981,0.027,11.883,6.08,11.883c4.371,0,6.071-3.089,7.732-5.396l1.639,2.276    c2.418,3.36,7.104,4.127,10.469,1.705c3.361-2.42,4.125-7.106,1.705-10.469l-1.74-2.417l2.764-0.907    C370.618,56.752,372.763,52.515,371.472,48.579z"/><path d="M445.635,129.084c-1.291-3.937-5.53-6.08-9.464-4.79l-2.663,0.873v-2.913c0-4.143-3.358-7.5-7.5-7.5    c-4.142,0-7.5,3.357-7.5,7.5v2.913l-2.663-0.873c-3.935-1.285-8.172,0.854-9.464,4.79c-1.289,3.935,0.856,8.172,4.791,9.463    l2.764,0.907l-1.74,2.417c-2.419,3.362-1.656,8.049,1.706,10.469c3.366,2.423,8.049,1.653,10.469-1.705l1.638-2.276    c1.576,2.189,3.3,5.396,7.732,5.396c6.04,0,9.671-6.894,6.081-11.883l-1.74-2.417l2.764-0.907    C444.781,137.257,446.926,133.02,445.635,129.084z"/><circle cx="345" cy="111" r="7"/><circle cx="465" cy="233" r="7"/><circle cx="387" cy="175" r="7"/><circle cx="468" cy="77" r="7"/><path d="M329.94,129.488c-3.905-4.834-9.439-5.319-9.439-5.319c-4.3-0.594-7.935,2.453-8.5,6.35    c-0.603,4.119,2.258,7.902,6.34,8.5l-13.38,13.04c-1.77,1.73-2.58,4.21-2.16,6.64l3.16,18.421c0,0,0,0-0.01,0    c-22.035-11.593-18.16-11.517-40.03-0.011h-0.01c-0.011,0.011-0.011,0.011-0.021,0.011l3.16-18.421    c0.42-2.43-0.39-4.909-2.15-6.64l-13.389-13.04l18.5-2.689c2.44-0.36,4.55-1.891,5.64-4.101l8.28-16.76l3.26,6.61    c1.27,2.58,3.851,4.189,6.73,4.189c5.552,0,9.171-5.84,6.729-10.83l-3.269-6.609c-5.508-11.28-21.541-10.996-26.91,0l-6.519,13.22    c-14.879,2.161-19.531,1.858-24.04,7.439c-2.22,2.73-3.4,6.04-3.4,9.57c-0.058,7.779,4.487,10.649,15.09,20.991l-2.49,14.54    c-0.15,0.84-0.22,1.71-0.22,2.58c-0.01,4.02,1.65,7.92,4.54,10.7c2.903,2.811,6.655,4.27,10.48,4.27    c4.682,0,6.331-1.404,20.009-8.6h0.01l13.05,6.859c9.923,5.263,22.007-2.041,21.98-13.229c0-0.87-0.07-1.74-0.22-2.58l-2.49-14.54    l10.559-10.29C334.442,144.32,334.861,135.54,329.94,129.488z"/><path d="M504.497,262.749h-99.822l3.558-3.469c10.024-9.769,4.484-26.804-9.362-28.814l-19.262-2.8l-8.614-17.454    c-6.194-12.553-24.105-12.547-30.296,0l-8.615,17.454l-19.261,2.8c-13.851,2.011-19.382,19.048-9.363,28.814l3.559,3.469h-26.834    c0.439-4.332-0.993-8.82-4.304-12.133l-42.426-42.426c-5.849-5.848-15.364-5.848-21.212,0    c-14.499,14.5-18.781,18.781-26.104,26.105l-28.75-28.75c-7.029-7.03-16.958-9.69-26.562-7.118    c-9.603,2.573-16.872,9.843-19.445,19.445l-15.035,56.111c-8.977,3.812-16.02,10.852-19.833,19.834l-56.11,15.034    c-20.447,5.477-27.309,31.025-12.328,46.009l28.75,28.75c-14.747,14.747-24.682,24.683-26.104,26.104    c-5.863,5.862-5.863,15.351,0,21.214l42.426,42.427c2.924,2.924,6.765,4.386,10.606,4.386s7.682-1.462,10.606-4.386l195.6-195.606    h227.037v177.5c-0.01,4.12-3.37,7.489-7.5,7.5H236.502c-4.13-0.011-7.49-3.38-7.5-7.5v-95.65c0-4.13-3.36-7.5-7.5-7.5    c-4.13,0-7.49,3.36-7.5,7.48c0,0.01,0,0.02,0,0.02v95.65c0,6.01,2.34,11.66,6.59,15.91c4.25,4.239,9.9,6.59,15.91,6.59h252.995    c12.379,0,22.5-10.013,22.5-22.5v-185C511.997,266.075,508.584,262.749,504.497,262.749z M125.868,221.756    c2.49-9.293,14.102-12.415,20.912-5.604l28.75,28.75c-10.325,10.325-22.166,22.166-34.668,34.669l9.049-33.772    c1.072-4.002-1.302-8.114-5.303-9.186c-4.001-1.073-8.114,1.302-9.185,5.303l-8.711,32.511c-4.455-2.059-9.216-3.203-14.042-3.41    L125.868,221.756z M104.677,286.901c8.131-2.372,16.842-0.069,22.697,6.159c-10.519,10.518-21.271,21.27-31.788,31.788    C82.878,312.874,88.129,291.728,104.677,286.901z M18.68,344.255c-3.195-3.196-4.405-7.71-3.235-12.075    c1.169-4.365,4.474-7.669,8.838-8.839l49.262-13.199c0.207,4.826,1.351,9.587,3.409,14.043l-32.51,8.711    c-4.002,1.071-6.376,5.185-5.303,9.186c1.072,4.001,5.184,6.375,9.185,5.304l33.772-9.049    c-12.503,12.503-24.347,24.348-34.669,34.669L18.68,344.255z M63.751,462.749l-42.425-42.426    c1.587-1.587,13.764-13.764,31.407-31.407c0-0.001,0-0.001,0-0.001l0.001-0.001c13.74-13.74,122.165-122.167,138.704-138.707    l0.002-0.002c13.153-13.154-3.966,3.966,31.406-31.407l42.432,42.418L63.751,462.749z M397.763,248.539l-14.578,14.211h-54.678    c-15.674-15.28-15.558-14.611-15.057-16.151c0.507-1.56-0.236-1.033,24.692-4.655c2.443-0.354,4.555-1.889,5.647-4.103    c11.184-22.66,10.437-22.046,12.057-22.046c1.621,0,0.873-0.614,12.056,22.046c1.093,2.214,3.204,3.748,5.647,4.103l23.165,3.366    C398.279,245.537,398.897,247.433,397.763,248.539z"/></g><g transform="matrix(0.11718737334012985 0 0 0.11718737334012985 84 18.000001907348633)" id="L1_13"><path d="m14.121094 176.800781c3.886718 1.871094 8.285156 2.816407 12.992187 2.816407 2.695313 0 5.492188-.308594 8.355469-.933594 17.191406-3.75 26.886719-16.960938 23.582031-32.128906 0-.003907 0-.003907 0-.003907l-18.910156-86.695312 79.507813-17.34375 14.015624 64.25c-4.476562-.847657-9.515624-.730469-14.949218.453125-17.574219 3.832031-27.183594 16.507812-23.90625 31.535156 2.761718 12.664062 13.199218 20.3125 26.574218 20.3125 2.644532 0 5.410157-.300781 8.25-.917969 17.191407-3.75 26.890626-16.964843 23.582032-32.132812 0 0 0 0 0-.003907l-25.199219-115.53125c-1.5625-7.171874-8.675781-11.734374-15.855469-10.167968l-82.792968 18.058594c-3.472657.757812-6.441407 2.820312-8.363282 5.808593-1.925781 2.992188-2.566406 6.554688-1.808594 10.027344l20.304688 93.101563c-4.476562-.847657-9.519531-.734376-14.949219.449218-7.855469 1.714844-14.300781 5.21875-18.632812 10.128906-5.140625 5.828126-7.015625 13.429688-5.273438 21.40625 1.730469 7.933594 6.515625 14.152344 13.476563 17.511719zm112.3125-33.3125c-3.410156.742188-14.722656 2.375-16.96875-7.933593-1.988282-9.109376 6.945312-12.484376 12.449218-13.683594 1.847657-.402344 3.832032-.683594 5.765626-.683594 4.917968 0 9.523437 1.808594 10.878906 8.015625v.003906c2.25 10.304688-8.710938 13.535157-12.125 14.28125zm-12.714844-128.167969 2.734375 12.535157-79.507813 17.34375-2.734374-12.53125zm-96.550781 132.488282c2.175781-2.464844 5.933593-4.382813 10.582031-5.398438 1.847656-.402344 3.832031-.683594 5.765625-.683594 4.917969 0 9.523437 1.8125 10.878906 8.015626v.003906c2.246094 10.308594-8.710937 13.539062-12.125 14.28125-4.480469.976562-8.613281.714844-11.636719-.742188-2.832031-1.363281-4.578124-3.71875-5.332031-7.191406-.738281-3.375-.144531-6.007812 1.867188-8.285156zm0 0"/><path d="m510.863281 375.242188c-1.433593-3.257813-4.050781-5.757813-7.363281-7.046876l-78.996094-30.695312c-6.847656-2.660156-14.574218.746094-17.234375 7.589844l-34.527343 88.878906c-3.3125-3.261719-7.589844-5.972656-12.683594-7.953125-7.496094-2.910156-14.800782-3.550781-21.128906-1.851563-7.503907 2.015626-13.261719 7.320313-16.21875 14.929688-2.941407 7.570312-2.386719 15.398438 1.558593 22.039062 3.464844 5.832032 9.257813 10.457032 16.753907 13.367188 4.511718 1.753906 8.941406 2.59375 13.117187 2.59375 11.007813 0 20.214844-5.855469 24.292969-16.347656l32.132812-82.710938 75.851563 29.472656-23.839844 61.363282c-3.3125-3.257813-7.585937-5.96875-12.683594-7.949219-16.765625-6.515625-31.777343-1.257813-37.347656 13.078125-2.941406 7.570312-2.386719 15.394531 1.5625 22.039062 3.464844 5.832032 9.257813 10.453126 16.75 13.367188 4.511719 1.75 8.945313 2.59375 13.121094 2.59375 11.007812 0 20.214843-5.859375 24.289062-16.351562l42.820313-110.21875c1.285156-3.316407 1.207031-6.933594-.226563-10.1875zm-164.410156 85.273437c-4.277344-1.660156-7.578125-4.160156-9.289063-7.042969-1.605468-2.707031-1.761718-5.632812-.472656-8.945312 1.25-3.222656 3.199219-5.085938 6.132813-5.875 1.027343-.277344 2.164062-.414063 3.378906-.414063 2.535156 0 5.425781.59375 8.421875 1.761719 4.378906 1.699219 7.714844 4.125 9.398438 6.832031 1.5625 2.511719 1.695312 5.207031.425781 8.480469-3.820313 9.832031-14.738281 6.46875-17.996094 5.203125zm69.542969-96.464844 4.644531-11.957031 75.855469 29.472656-4.644532 11.957032zm20.292968 131.371094c-4.277343-1.660156-7.574218-4.164063-9.285156-7.046875-1.609375-2.703125-1.761718-5.628906-.476562-8.941406 1.890625-4.863282 5.636718-6.339844 9.492187-6.339844 3.03125 0 6.132813.914062 8.441407 1.8125 4.378906 1.699219 7.714843 4.125 9.398437 6.832031 1.5625 2.511719 1.695313 5.207031.425781 8.476563-3.820312 9.835937-14.738281 6.472656-17.996094 5.207031zm0 0"/><path d="m220.269531 477.699219c-46.117187 33.515625-116.300781 22.550781-163.257812-25.503907-27.386719-28.027343-42.695313-64.808593-41.988281-100.910156.5625-28.847656 11.515624-54.804687 30.839843-73.09375 13.761719-13.007812 31.3125-21.78125 50.757813-25.375 26.421875-4.878906 49.816406-17.636718 67.652344-36.890625 2.816406-3.039062 2.636718-7.785156-.402344-10.597656-3.039063-2.820313-7.78125-2.636719-10.597656.402344-15.628907 16.867187-36.15625 28.046875-59.375 32.335937-22.296876 4.117188-42.46875 14.222656-58.34375 29.226563-22.269532 21.078125-34.886719 50.800781-35.5273442 83.699219-.7851558 40.097656 16.0781252 80.804687 46.2578122 111.6875 31.5625 32.300781 72.816406 49.320312 112.027344 49.320312 25.542969 0 50.226562-7.230469 70.773438-22.164062 3.351562-2.433594 4.09375-7.125 1.660156-10.476563-2.4375-3.351563-7.128906-4.09375-10.476563-1.660156zm0 0"/><path d="m349.789062 326.886719c15.675782-15.679688 23.167969-35.878907 21.65625-58.417969-1.195312-17.886719-7.984374-36.890625-19.675781-55.292969l47.863281-47.863281c2.929688-2.929688 2.929688-7.679688.003907-10.605469-2.929688-2.929687-7.679688-2.929687-10.605469 0l-132.710938 132.707031c-2.855468-7.078124-7.125-13.578124-12.683593-19.136718-5.558594-5.558594-12.054688-9.832032-19.132813-12.683594l156.210938-156.222656 31.824218 31.824218-.886718.886719c-2.929688 2.925781-2.929688 7.675781 0 10.605469 1.464844 1.464844 3.382812 2.195312 5.304687 2.195312 1.917969 0 3.839844-.730468 5.300781-2.195312l1.898438-1.894531c1.191406.375 2.4375.574219 3.703125.574219.128906 0 .257813-.003907.386719-.007813 3.417968-.105469 6.671875-1.640625 8.929687-4.207031l7.960938-9.039063 8.535156 8.535157c1.464844 1.464843 3.386719 2.199218 5.304687 2.199218 1.917969 0 3.839844-.734375 5.304688-2.199218 2.929688-2.929688 2.929688-7.675782 0-10.605469l-9.210938-9.210938 12.527344-14.226562 8.914063 8.914062c1.464843 1.464844 3.386719 2.195313 5.304687 2.195313 1.917969 0 3.839844-.730469 5.304688-2.195313 2.929687-2.929687 2.929687-7.679687 0-10.609375l-9.589844-9.585937 12.433594-14.117188 6.457031 6.460938c1.464844 1.464843 3.386719 2.195312 5.304687 2.195312 1.917969 0 3.839844-.730469 5.304688-2.195312 2.929688-2.929688 2.929688-7.679688 0-10.609375l-7.136719-7.132813 9-10.21875c4.320313-4.90625 4.085938-12.371093-.535156-16.996093l-35.074219-35.074219c-4.625-4.625-12.089844-4.859375-16.996094-.539063l-10.222656 9.003906-7.140625-7.136718c-2.929687-2.925782-7.679687-2.925782-10.605469.003906-2.929687 2.929688-2.925781 7.679688.003907 10.609375l6.460937 6.457031-14.113281 12.425782-9.675781-9.671876c-2.925782-2.929687-7.675782-2.929687-10.605469 0-2.929687 2.925782-2.929687 7.675782 0 10.605469l9.003906 9-14.230469 12.53125-9.207031-9.207031c-2.925781-2.929688-7.675781-2.929688-10.605469 0-2.929687 2.929688-2.929687 7.679688 0 10.605469l8.535157 8.535156-9.042969 7.960937c-2.5625 2.257813-4.09375 5.511719-4.203125 8.929688-.042969 1.347656.144531 2.683594.527344 3.957031l-72.347657 72.351563c-42.164062-27.09375-84.625-27.253906-111.878906.003906-7.015625 7-12.386718 13.835938-16.421875 20.894531-2.058593 3.597657-.808593 8.179688 2.785157 10.234375 1.175781.671875 2.453124.992188 3.71875.992188 2.601562 0 5.132812-1.359375 6.515624-3.78125 3.367188-5.882813 7.941407-11.679688 14.003907-17.730469 29.8125-29.816406 70.65625-11.601563 90.375.289063l-80.644531 80.648437c-1.421876-.105469-2.851563-.175781-4.292969-.175781-15.355469 0-29.796875 5.980468-40.65625 16.84375-10.863281 10.859375-16.84375 25.300781-16.84375 40.660156s5.980469 29.800781 16.84375 40.660156c10.859375 10.859375 25.300781 16.84375 40.65625 16.84375 15.359375 0 29.800781-5.984375 40.660156-16.84375s16.839844-25.300781 16.839844-40.660156c0-1.441406-.070313-2.871094-.175781-4.292969l80.550781-80.550781c11.765625 19.824219 29.515625 61-1.675781 92.191406-4.910157 4.921875-10.519532 9.125-16.667969 12.492188-34.101563 18.652344-56.660157 49.351562-63.515625 86.441406-2.855469 15.484375-8.824219 29.484375-17.746094 41.617188-2.453125 3.339843-1.738281 8.035156 1.597656 10.488281 1.339844.984375 2.894532 1.457031 4.4375 1.457031 2.304688 0 4.578125-1.058594 6.046875-3.058594 10.277344-13.976562 17.144531-30.050781 20.414063-47.78125 6.019531-32.566406 25.894531-59.558594 55.964844-76.007812 7.402343-4.054688 14.160156-9.117188 20.078124-15.046875zm114.597657-310.933594 31.652343 31.652344-68.308593 77.574219-40.910157-40.917969zm-231.355469 323.035156c-8.027344 8.027344-18.699219 12.449219-30.050781 12.449219-11.351563 0-22.023438-4.421875-30.050781-12.449219-8.027344-8.027343-12.449219-18.699219-12.449219-30.050781 0-11.355469 4.421875-22.027344 12.449219-30.054688 8.023437-8.027343 18.699218-12.449218 30.050781-12.449218 11.351562 0 22.023437 4.421875 30.050781 12.449218 8.023438 8.027344 12.445312 18.699219 12.445312 30.054688 0 11.351562-4.417968 22.023438-12.445312 30.050781zm0 0"/><path d="m63.804688 334.816406c-10.121094 10.121094-10.121094 26.59375 0 36.714844l76.582031 76.585938c5.0625 5.058593 11.710937 7.589843 18.355469 7.589843 6.648437 0 13.296874-2.53125 18.359374-7.59375 10.121094-10.121093 10.121094-26.589843 0-36.714843l-76.582031-76.585938c-4.902343-4.902344-11.421875-7.601562-18.355469-7.601562-6.933593 0-13.453124 2.703124-18.359374 7.605468zm102.6875 87.191406c4.273437 4.273438 4.273437 11.226563 0 15.5-4.269532 4.273438-11.222657 4.277344-15.5 0l-76.578126-76.582031c-4.273437-4.273437-4.273437-11.230469 0-15.503906 2.066407-2.066406 4.820313-3.210937 7.75-3.210937 2.925782 0 5.679688 1.140624 7.75 3.210937zm0 0"/><path d="m376.996094 158.335938c1.917968 0 3.839844-.730469 5.304687-2.195313 2.925781-2.929687 2.925781-7.679687 0-10.605469l-16-16.003906c-2.929687-2.925781-7.679687-2.925781-10.609375 0-2.929687 2.929688-2.929687 7.679688 0 10.609375l16 16c1.464844 1.464844 3.386719 2.195313 5.304688 2.195313zm0 0"/><path d="m354.828125 180.503906c1.921875 0 3.839844-.730468 5.304687-2.195312 2.929688-2.929688 2.929688-7.679688 0-10.605469l-16-16.003906c-2.929687-2.925781-7.675781-2.925781-10.605468 0-2.929688 2.929687-2.929688 7.679687 0 10.609375l16 16c1.464844 1.464844 3.382812 2.195312 5.300781 2.195312zm0 0"/><path d="m332.664062 202.671875c1.917969 0 3.835938-.730469 5.300782-2.195313 2.929687-2.929687 2.929687-7.679687 0-10.609374l-16-16c-2.929688-2.929688-7.675782-2.929688-10.605469 0-2.929687 2.929687-2.929687 7.679687 0 10.605468l16 16.003906c1.464844 1.464844 3.382813 2.195313 5.304687 2.195313zm0 0"/><path d="m310.496094 224.839844c1.917968 0 3.839844-.730469 5.304687-2.195313 2.929688-2.929687 2.929688-7.679687 0-10.609375l-16-16c-2.929687-2.929687-7.679687-2.929687-10.605469 0-2.929687 2.929688-2.929687 7.679688 0 10.605469l16 16.003906c1.464844 1.464844 3.382813 2.195313 5.300782 2.195313zm0 0"/><path d="m267.027344 218.203125c-2.929688 2.929687-2.929688 7.679687 0 10.609375l16 16c1.464844 1.464844 3.382812 2.195312 5.304687 2.195312 1.917969 0 3.835938-.730468 5.300781-2.195312 2.929688-2.929688 2.929688-7.679688 0-10.609375l-16-16c-2.929687-2.929687-7.675781-2.929687-10.605468 0zm0 0"/><path d="m417.621094 76.542969c-2.929688-2.929688-7.675782-2.929688-10.605469 0-2.929687 2.929687-2.929687 7.675781 0 10.605469 2.929687 2.929687 7.675781 2.929687 10.605469 0 2.929687-2.929688 2.929687-7.675782 0-10.605469zm0 0"/><path d="m435.609375 94.375c-2.929687-2.929688-7.679687-2.929688-10.609375 0-2.925781 2.925781-2.925781 7.675781 0 10.605469 2.929688 2.929687 7.679688 2.929687 10.609375 0 2.925781-2.929688 2.925781-7.679688 0-10.605469zm0 0"/><path d="m440.128906 54c-2.929687-2.929688-7.679687-2.929688-10.605468 0-2.929688 2.929688-2.929688 7.679688 0 10.605469 2.925781 2.929687 7.675781 2.929687 10.605468 0 2.929688-2.925781 2.929688-7.675781 0-10.605469zm0 0"/><path d="m458.128906 71.851562c-2.929687-2.929687-7.679687-2.929687-10.605468 0-2.929688 2.929688-2.929688 7.679688 0 10.605469 2.925781 2.929688 7.675781 2.929688 10.605468 0 2.929688-2.925781 2.929688-7.675781 0-10.605469zm0 0"/><path d="m462.648438 31.480469c-2.929688-2.929688-7.675782-2.929688-10.605469 0-2.929688 2.929687-2.929688 7.675781 0 10.605469 2.929687 2.929687 7.675781 2.929687 10.605469 0 2.929687-2.929688 2.929687-7.675782 0-10.605469zm0 0"/><path d="m480.644531 49.328125c-2.929687-2.929687-7.679687-2.929687-10.605469 0-2.929687 2.925781-2.929687 7.675781 0 10.605469 2.925782 2.929687 7.675782 2.929687 10.605469 0 2.929688-2.929688 2.929688-7.679688 0-10.605469zm0 0"/></g><g transform="matrix(0.1249999925494194 0 0 0.1249999925494194 255 24.000001907348633)" id="L1_15"><path d="m408 40c0-22.089844-17.910156-40-40-40-22.09375 0-40 17.910156-40 40s17.90625 40 40 40c22.078125-.027344 39.972656-17.917969 40-40zm-40 24c-13.253906 0-24-10.746094-24-24s10.746094-24 24-24 24 10.746094 24 24-10.746094 24-24 24zm0 0"/><path d="m456 80h-144v-48c0-13.253906-10.746094-24-24-24s-24 10.746094-24 24v72c0 13.253906 10.746094 24 24 24h24v37.34375l-27.199219 36.398438c-3.109375 4.160156-4.792969 9.210937-4.800781 14.402343v87.855469c0 4.417969 3.582031 8 8 8h32c4.417969 0 8-3.582031 8-8v-79.679688c-.003906-2.007812.75-3.945312 2.113281-5.425781l17.390625-18.894531h20.496094v104c0 4.417969 3.582031 8 8 8h32c4.417969 0 8-3.582031 8-8v-176h16v32c0 13.253906 10.746094 24 24 24s24-10.746094 24-24v-56c0-13.253906-10.746094-24-24-24zm8 80c0 4.417969-3.582031 8-8 8s-8-3.582031-8-8v-40c0-4.417969-3.582031-8-8-8h-32c-4.417969 0-8 3.582031-8 8v176h-16v-104c0-4.417969-3.582031-8-8-8h-32c-2.234375.003906-4.367188.9375-5.878906 2.585938l-19.777344 21.476562c-4.089844 4.425781-6.355469 10.234375-6.34375 16.257812v71.679688h-16v-79.878906c0-1.730469.5625-3.417969 1.597656-4.800782l28.800782-38.519531c1.039062-1.386719 1.601562-3.070312 1.601562-4.800781v-48c0-4.417969-3.582031-8-8-8h-32c-4.417969 0-8-3.582031-8-8v-72c0-4.417969 3.582031-8 8-8s8 3.582031 8 8v56c0 4.417969 3.582031 8 8 8h152c4.417969 0 8 3.582031 8 8zm0 0"/><path d="m184 192c0-22.089844-17.910156-40-40-40-22.09375 0-40 17.910156-40 40s17.90625 40 40 40c22.078125-.027344 39.972656-17.917969 40-40zm-40 24c-13.253906 0-24-10.746094-24-24s10.746094-24 24-24 24 10.746094 24 24-10.746094 24-24 24zm0 0"/><path d="m229.910156 160.800781c-7.164062-1.800781-14.761718-.207031-20.597656 4.324219-5.839844 4.527344-9.273438 11.488281-9.3125 18.875v48h-128c-22.082031.027344-39.972656 17.917969-40 40v40c0 13.253906 10.746094 24 24 24h40v23.761719c0 .738281.101562 1.472656.304688 2.183593l15.078124 53.007813-30.328124 53.046875c-1.429688 2.476562-1.429688 5.53125.003906 8.007812 1.433594 2.476563 4.078125 3.996094 6.941406 3.992188h32c2.863281.003906 5.511719-1.519531 6.945312-4l32-56c1.066407-1.867188 1.339844-4.089844.75-6.160156l-13.089843-45.839844h15.625l13.601562 40.800781-7.769531 62.199219c-.285156 2.277344.417969 4.570312 1.9375 6.292969 1.519531 1.71875 3.703125 2.707031 6 2.707031h32c4.035156 0 7.433594-3.003906 7.933594-7.007812l8-64c.132812-1.035157.0625-2.089844-.214844-3.097657l-23.71875-86.964843v-38.929688h24c13.253906 0 24-10.746094 24-24v-71.121094c.1875-11.21875-7.261719-21.132812-18.089844-24.078125zm2.089844 95.199219c0 4.417969-3.582031 8-8 8h-32c-4.417969 0-8 3.582031-8 8v48c0 .710938.09375 1.417969.28125 2.105469l23.582031 86.46875-6.929687 55.425781h-15.871094l6.871094-55.007812c.152344-1.183594.035156-2.390626-.351563-3.519532l-16-48c-1.085937-3.265625-4.140625-5.46875-7.582031-5.472656h-32c-2.511719 0-4.875 1.175781-6.386719 3.179688-1.511719 2.003906-1.996093 4.597656-1.308593 7.011718l15.078124 52.800782-28.023437 49.007812h-13.601563l25.152344-44c1.066406-1.867188 1.339844-4.082031.753906-6.152344l-15.664062-55.207031v-22.640625c13.226562-.066406 23.933594-10.773438 24-24 0-13.253906-10.746094-24-24-24v-16c0-4.417969-3.582031-8-8-8h-24c-8.835938 0-16 7.164062-16 16v16c0 4.417969 3.582031 8 8 8h40c4.417969 0 8 3.582031 8 8 .003906 2.160156-.886719 4.222656-2.457031 5.703125-1.460938 1.488281-3.460938 2.316406-5.542969 2.296875h-56c-4.417969 0-8-3.582031-8-8v-40c0-13.253906 10.746094-24 24-24h136c4.417969 0 8-3.582031 8-8v-56c-.003906-2.15625.878906-4.214844 2.449219-5.695312 1.945312-2.019532 4.84375-2.800782 7.542969-2.03125 3.707031 1.191406 6.164062 4.714843 6.007812 8.605468zm-136 32h-16v-8h16zm0 0"/><path d="m56.566406 122.96875c1.214844 3.042969 4.15625 5.039062 7.433594 5.039062 3.273438 0 6.21875-1.996093 7.429688-5.039062l14.730468-36.800781 36.800782-14.726563c3.042968-1.214844 5.039062-4.15625 5.039062-7.433594 0-3.273437-1.996094-6.21875-5.039062-7.433593l-36.800782-14.734375-14.730468-36.800782c-1.210938-3.042968-4.15625-5.039062-7.429688-5.039062-3.277344 0-6.21875 1.996094-7.433594 5.039062l-14.726562 36.800782-36.800782 14.726562c-3.042968 1.214844-5.039062 4.160156-5.039062 7.433594s1.996094 6.21875 5.039062 7.433594l36.800782 14.726562zm-5.597656-67.535156c2.035156-.816406 3.648438-2.429688 4.460938-4.464844l8.570312-21.433594 8.566406 21.433594c.8125 2.035156 2.429688 3.648438 4.464844 4.464844l21.433594 8.566406-21.433594 8.566406c-2.035156.816406-3.652344 2.429688-4.464844 4.464844l-8.566406 21.433594-8.570312-21.433594c-.8125-2.035156-2.425782-3.648438-4.460938-4.464844l-21.433594-8.566406zm0 0"/><path d="m410.96875 408.566406-36.800781-14.726562-14.730469-36.800782c-1.210938-3.042968-4.15625-5.039062-7.429688-5.039062-3.277343 0-6.21875 1.996094-7.433593 5.039062l-14.726563 36.800782-36.800781 14.726562c-3.042969 1.214844-5.039063 4.160156-5.039063 7.433594s1.996094 6.21875 5.039063 7.433594l36.800781 14.726562 14.726563 36.800782c1.214843 3.042968 4.15625 5.039062 7.433593 5.039062 3.273438 0 6.21875-1.996094 7.429688-5.039062l14.730469-36.800782 36.800781-14.726562c3.042969-1.214844 5.039062-4.160156 5.039062-7.433594s-1.996093-6.21875-5.039062-7.433594zm-45.9375 16c-2.035156.816406-3.652344 2.429688-4.464844 4.464844l-8.566406 21.433594-8.570312-21.433594c-.8125-2.035156-2.425782-3.648438-4.460938-4.464844l-21.433594-8.566406 21.433594-8.566406c2.035156-.816406 3.648438-2.429688 4.460938-4.464844l8.570312-21.433594 8.566406 21.433594c.8125 2.035156 2.429688 3.648438 4.464844 4.464844l21.433594 8.566406zm0 0"/><path d="m200 118.625c-2.121094 0-4.15625-.84375-5.65625-2.34375l-22.625-22.625c-3.121094-3.125-3.121094-8.1875 0-11.3125l22.625-22.625c3.125-3.121094 8.1875-3.121094 11.3125 0l22.625 22.625c3.121094 3.125 3.121094 8.1875 0 11.3125l-22.625 22.625c-1.5 1.5-3.535156 2.34375-5.65625 2.34375zm-11.3125-30.625 11.3125 11.3125 11.3125-11.3125-11.3125-11.3125zm0 0"/><path d="m448 390.625c-2.121094 0-4.15625-.84375-5.65625-2.34375l-22.625-22.625c-3.121094-3.125-3.121094-8.1875 0-11.3125l22.625-22.625c3.125-3.121094 8.1875-3.121094 11.3125 0l22.625 22.625c3.121094 3.125 3.121094 8.1875 0 11.3125l-22.625 22.625c-1.5 1.5-3.535156 2.34375-5.65625 2.34375zm-11.3125-30.625 11.3125 11.3125 11.3125-11.3125-11.3125-11.3125zm0 0"/></g><g transform="matrix(-0.12397168576717377 0 0 0.12397168576717377 228.87832641601562 268)" id="L1_16"><path d="m232.78125 127.492188-139.085938-37.273438c-4.269531-1.144531-8.65625 1.386719-9.800781 5.65625l-31.054687 115.910156c-10.636719 39.6875 10.519531 80.980469 48.941406 95.53125l-37.375 139.46875-54.09375-14.488281c-2.796875-.839844-5.828125-.097656-7.910156 1.945313-2.085938 2.042968-2.890625 5.058593-2.105469 7.867187.785156 2.8125 3.035156 4.972656 5.878906 5.636719l123.640625 33.128906c.675782.179688 1.371094.269531 2.070313.273438 4.015625-.003907 7.40625-2.980469 7.929687-6.960938.519532-3.980469-1.988281-7.730469-5.867187-8.769531l-54.085938-14.488281 37.398438-139.597657c40.601562 7.066407 79.820312-18.234375 90.121093-58.136719l31.0625-115.90625c1.144532-4.269531-1.390624-8.65625-5.664062-9.796874zm-135.46875-19.753907 123.636719 33.136719-9.101563 33.96875-32.234375 9.648438c-15.371093 4.398437-31.898437 1.902343-45.285156-6.839844-15.597656-10.40625-34.738281-14.066406-53.074219-10.144532zm16.261719 186.578125c-34.148438-9.148437-54.414063-44.253906-45.253907-78.402344l8.191407-30.625 4.261719-1.222656c15.1875-4.367187 31.527343-1.824218 44.664062 6.960938 11.5 7.660156 25.015625 11.730468 38.832031 11.703125 6.773438.027343 13.515625-.949219 20-2.894531l22.699219-6.816407-15.019531 56c-9.183594 34.125-44.253907 54.386719-78.40625 45.296875zm0 0"/><path d="m483.710938 437.953125c-1.144532-4.261719-5.527344-6.792969-9.792969-5.65625l-54.09375 14.488281-37.386719-139.46875c38.425781-14.550781 59.582031-55.84375 48.945312-95.53125l-31.054687-115.910156c-1.144531-4.269531-5.53125-6.800781-9.800781-5.65625l-139.089844 37.273438c-4.269531 1.140624-6.808594 5.527343-5.664062 9.796874l31.066406 115.90625c10.300781 39.902344 49.519531 65.203126 90.117187 58.136719l37.402344 139.597657-54.089844 14.488281c-3.875 1.039062-6.382812 4.789062-5.863281 8.769531.523438 3.980469 3.914062 6.957031 7.929688 6.960938.699218-.003907 1.394531-.09375 2.070312-.273438l123.640625-33.128906c4.269531-1.140625 6.804687-5.523438 5.664063-9.792969zm-96.800782-330.214844 14.28125 53.28125-7.242187-1.601562c-5.757813-1.3125-11.644531-1.96875-17.550781-1.960938-15.828126-.023437-31.300782 4.679688-44.441407 13.503907-12.8125 8.527343-28.269531 12.164062-43.542969 10.242187l-14.832031-1.832031-10.3125-38.488282zm-94.625 141.3125-14.175781-53.015625 8.386719 1.03125c19.082031 2.398438 38.386718-2.144531 54.398437-12.800781 14.59375-9.6875 32.5-13.023437 49.601563-9.230469l15.4375 3.441406 10.050781 37.46875c9.144531 34.144532-11.121094 69.238282-45.265625 78.386719-34.144531 9.144531-69.238281-11.121093-78.382812-45.265625zm0 0"/><path d="m250.109375 56.492188v-48c0-4.417969-3.582031-8-8-8s-8 3.582031-8 8v48c0 4.417968 3.582031 8 8 8s8-3.582032 8-8zm0 0"/><path d="m195.183594 71.210938c1.417968 2.496093 4.066406 4.039062 6.9375 4.046874 2.871094.003907 5.523437-1.527343 6.953125-4.015624 1.429687-2.492188 1.417969-5.554688-.035157-8.03125l-24-41.601563c-1.417968-2.496094-4.066406-4.039063-6.9375-4.042969-2.871093-.007812-5.523437 1.523438-6.953124 4.015625-1.429688 2.488281-1.417969 5.550781.035156 8.027344zm0 0"/><path d="m278.109375 74.140625c3.828125 2.207031 8.71875.894531 10.929687-2.929687l24-41.601563c1.453126-2.476563 1.464844-5.539063.035157-8.027344-1.429688-2.492187-4.082031-4.023437-6.953125-4.015625-2.871094.003906-5.519532 1.546875-6.9375 4.042969l-24 41.601563c-2.210938 3.824218-.898438 8.71875 2.925781 10.929687zm0 0"/></g><g transform="matrix(0.1171872690320015 0 0 0.1171872690320015 -22 275)" id="L1_17"><path d="m166.003906 103.195312c-8.183594 5.539063-19.394531 13.125-19.394531 28.578126 0 5.523437 4.476563 10 10 10s10-4.476563 10-10c0-4.402344 3.066406-6.914063 10.601563-12.011719 8.1875-5.539063 19.398437-13.125 19.398437-28.582031 0-15.457032-11.210937-23.039063-19.398437-28.578126-7.535157-5.097656-10.601563-7.609374-10.601563-12.011718s3.066406-6.914063 10.601563-12.011719c8.1875-5.539063 19.398437-13.121094 19.398437-28.578125 0-5.519531-4.480469-10-10-10-5.523437 0-10 4.480469-10 10 0 4.402344-3.070313 6.914062-10.605469 12.011719-8.183594 5.539062-19.394531 13.121093-19.394531 28.578125 0 15.457031 11.207031 23.039062 19.394531 28.578125 7.535156 5.097656 10.605469 7.609375 10.605469 12.015625 0 4.402344-3.070313 6.914062-10.605469 12.011718zm0 0"/><path d="m234.988281 103.195312c-8.183593 5.539063-19.394531 13.121094-19.394531 28.578126 0 5.523437 4.476562 10 10 10s10-4.476563 10-10c0-4.402344 3.066406-6.914063 10.601562-12.011719 8.1875-5.539063 19.398438-13.125 19.398438-28.582031 0-15.457032-11.210938-23.039063-19.398438-28.578126-7.535156-5.097656-10.605468-7.609374-10.605468-12.011718s3.070312-6.914063 10.605468-12.011719c8.1875-5.539063 19.398438-13.125 19.398438-28.578125 0-5.523438-4.480469-10-10-10-5.523438 0-10 4.476562-10 10 0 4.398438-3.070312 6.914062-10.605469 12.011719-8.1875 5.539062-19.398437 13.121093-19.398437 28.578125 0 15.453125 11.210937 23.039062 19.398437 28.574218 7.535157 5.101563 10.605469 7.613282 10.605469 12.015626 0 4.40625-3.066406 6.917968-10.605469 12.015624zm0 0"/><path d="m303.972656 103.195312c-8.183594 5.539063-19.394531 13.125-19.394531 28.578126 0 5.523437 4.476563 10 10 10s10-4.476563 10-10c0-4.402344 3.070313-6.914063 10.605469-12.011719 8.183594-5.539063 19.394531-13.125 19.394531-28.582031 0-15.457032-11.210937-23.039063-19.394531-28.578126-7.535156-5.097656-10.605469-7.609374-10.605469-12.011718s3.070313-6.914063 10.605469-12.011719c8.183594-5.539063 19.394531-13.121094 19.394531-28.578125 0-5.519531-4.480469-10-10-10-5.523437 0-10 4.480469-10 10 0 4.402344-3.070313 6.914062-10.605469 12.011719-8.183594 5.539062-19.394531 13.121093-19.394531 28.578125 0 15.457031 11.210937 23.039062 19.394531 28.578125 7.535156 5.097656 10.605469 7.609375 10.605469 12.015625 0 4.402344-3.070313 6.914062-10.605469 12.011718zm0 0"/><path d="m453.414062 229.445312h-36.582031c1.152344-7.113281 1.902344-14.355468 2.222657-21.710937 11.519531-4.023437 19.808593-14.992187 19.808593-27.867187 0-16.273438-13.242187-29.515626-29.519531-29.515626h-355.273438c-16.277343 0-29.515624 13.242188-29.515624 29.515626 0 12.875 8.285156 23.84375 19.804687 27.867187.324219 7.355469 1.074219 14.597656 2.222656 21.707031h-36.582031c-5.523438 0-10 4.480469-10 10 0 5.523438 4.476562 10 10 10h40.957031c13.777344 49.683594 47.53125 91.140625 92.035157 115.136719l-23.660157 44.40625c-.015625.027344-.027343.050781-.042969.078125l-44.191406 82.9375h-15.214844c-5.523437 0-10 4.480469-10 10 0 5.523438 4.476563 10 10 10h42.433594c5.523438 0 10-4.476562 10-10 0-5.519531-4.476562-10-10-10h-4.558594l36.351563-68.214844h197.578125l36.347656 68.214844h-6.9375c-5.519531 0-10 4.480469-10 10 0 5.523438 4.480469 10 10 10h42.433594c5.523438 0 10-4.476562 10-10 0-5.519531-4.476562-10-10-10h-12.832031l-44.199219-82.941406c-.011719-.023438-.023438-.046875-.035156-.070313l-24.203125-45.417969c43.59375-24.140624 76.609375-65.132812 90.195312-114.125h40.957031c5.519532 0 10-4.480468 10-10 0-5.523437-4.476562-10-10-10zm-308.648437 174.339844 16.335937-30.664062c21.808594 8.894531 45.640626 13.808594 70.605469 13.808594 25.710938 0 50.226563-5.203126 72.558594-14.609376l16.765625 31.464844zm86.941406-36.855468c-89.027343 0-162.0625-69.792969-167.25-157.542969h334.5c-5.1875 87.75-78.21875 157.542969-167.25 157.542969zm177.636719-177.542969h-355.273438c-5.246093 0-9.515624-4.269531-9.515624-9.519531 0-5.246094 4.269531-9.515626 9.515624-9.515626h355.273438c5.25 0 9.519531 4.269532 9.519531 9.515626 0 5.25-4.269531 9.519531-9.519531 9.519531zm0 0"/><path d="m231.707031 349.332031c51.9375 0 99.464844-26.363281 127.140625-70.519531 2.933594-4.679688 1.519532-10.851562-3.164062-13.785156-4.679688-2.933594-10.851563-1.515625-13.78125 3.164062-23.996094 38.28125-65.1875 61.140625-110.195313 61.140625-5.523437 0-10 4.476563-10 10 0 5.519531 4.476563 10 10 10zm0 0"/><path d="m357.238281 240.753906c1.628907 3.902344 5.632813 6.421875 9.859375 6.152344 4.007813-.257812 7.527344-2.964844 8.832032-6.761719 1.398437-4.066406-.074219-8.757812-3.558594-11.28125-3.21875-2.335937-7.625-2.546875-11.039063-.507812-4.195312 2.507812-5.972656 7.882812-4.09375 12.398437zm0 0"/></g></defs><g fi:class="KUsePattern" opacity="0.05"><pattern id="pattern_L1_5" width="350" height="350" patternUnits="userSpaceOnUse"><use xlink:href="#L1_5" x="-350" y="-350"/><use xlink:href="#L1_5" x="0" y="-350"/><use xlink:href="#L1_5" x="350" y="-350"/><use xlink:href="#L1_5" x="-350" y="0"/><use xlink:href="#L1_5" x="0" y="0"/><use xlink:href="#L1_5" x="350" y="0"/><use xlink:href="#L1_5" x="-350" y="350"/><use xlink:href="#L1_5" x="0" y="350"/><use xlink:href="#L1_5" x="350" y="350"/></pattern><rect x="0" y="0" width="100%" height="100%" fill="url(#pattern_L1_5)"/></g><g fi:class="KUsePattern" opacity="0.07"><pattern id="pattern_L1_10" width="350" height="350" patternUnits="userSpaceOnUse"><use xlink:href="#L1_10" x="-350" y="-350"/><use xlink:href="#L1_10" x="0" y="-350"/><use xlink:href="#L1_10" x="350" y="-350"/><use xlink:href="#L1_10" x="-350" y="0"/><use xlink:href="#L1_10" x="0" y="0"/><use xlink:href="#L1_10" x="350" y="0"/><use xlink:href="#L1_10" x="-350" y="350"/><use xlink:href="#L1_10" x="0" y="350"/><use xlink:href="#L1_10" x="350" y="350"/></pattern><rect x="0" y="0" width="100%" height="100%" fill="url(#pattern_L1_10)"/></g><g fi:class="KUsePattern" opacity="0.07"><pattern id="pattern_L1_11" width="350" height="350" patternUnits="userSpaceOnUse"><use xlink:href="#L1_11" x="-350" y="-350"/><use xlink:href="#L1_11" x="0" y="-350"/><use xlink:href="#L1_11" x="350" y="-350"/><use xlink:href="#L1_11" x="-350" y="0"/><use xlink:href="#L1_11" x="0" y="0"/><use xlink:href="#L1_11" x="350" y="0"/><use xlink:href="#L1_11" x="-350" y="350"/><use xlink:href="#L1_11" x="0" y="350"/><use xlink:href="#L1_11" x="350" y="350"/></pattern><rect x="0" y="0" width="100%" height="100%" fill="url(#pattern_L1_11)"/></g><g fi:class="KUsePattern" opacity="0.06"><pattern id="pattern_L1_12" width="350" height="350" patternUnits="userSpaceOnUse"><use xlink:href="#L1_12" x="-350" y="-350"/><use xlink:href="#L1_12" x="0" y="-350"/><use xlink:href="#L1_12" x="350" y="-350"/><use xlink:href="#L1_12" x="-350" y="0"/><use xlink:href="#L1_12" x="0" y="0"/><use xlink:href="#L1_12" x="350" y="0"/><use xlink:href="#L1_12" x="-350" y="350"/><use xlink:href="#L1_12" x="0" y="350"/><use xlink:href="#L1_12" x="350" y="350"/></pattern><rect x="0" y="0" width="100%" height="100%" fill="url(#pattern_L1_12)"/></g><g fi:class="KUsePattern" opacity="0.05"><pattern id="pattern_L1_13" width="350" height="350" patternUnits="userSpaceOnUse"><use xlink:href="#L1_13" x="-350" y="-350"/><use xlink:href="#L1_13" x="0" y="-350"/><use xlink:href="#L1_13" x="350" y="-350"/><use xlink:href="#L1_13" x="-350" y="0"/><use xlink:href="#L1_13" x="0" y="0"/><use xlink:href="#L1_13" x="350" y="0"/><use xlink:href="#L1_13" x="-350" y="350"/><use xlink:href="#L1_13" x="0" y="350"/><use xlink:href="#L1_13" x="350" y="350"/></pattern><rect x="0" y="0" width="100%" height="100%" fill="url(#pattern_L1_13)"/></g><g fi:class="KUsePattern" opacity="0.06"><pattern id="pattern_L1_15" width="350" height="350" patternUnits="userSpaceOnUse"><use xlink:href="#L1_15" x="-350" y="-350"/><use xlink:href="#L1_15" x="0" y="-350"/><use xlink:href="#L1_15" x="350" y="-350"/><use xlink:href="#L1_15" x="-350" y="0"/><use xlink:href="#L1_15" x="0" y="0"/><use xlink:href="#L1_15" x="350" y="0"/><use xlink:href="#L1_15" x="-350" y="350"/><use xlink:href="#L1_15" x="0" y="350"/><use xlink:href="#L1_15" x="350" y="350"/></pattern><rect x="0" y="0" width="100%" height="100%" fill="url(#pattern_L1_15)"/></g><g fi:class="KUsePattern" opacity="0.06"><pattern id="pattern_L1_16" width="350" height="350" patternUnits="userSpaceOnUse"><use xlink:href="#L1_16" x="-350" y="-350"/><use xlink:href="#L1_16" x="0" y="-350"/><use xlink:href="#L1_16" x="350" y="-350"/><use xlink:href="#L1_16" x="-350" y="0"/><use xlink:href="#L1_16" x="0" y="0"/><use xlink:href="#L1_16" x="350" y="0"/><use xlink:href="#L1_16" x="-350" y="350"/><use xlink:href="#L1_16" x="0" y="350"/><use xlink:href="#L1_16" x="350" y="350"/></pattern><rect x="0" y="0" width="100%" height="100%" fill="url(#pattern_L1_16)"/></g><g fi:class="KUsePattern" opacity="0.08"><pattern id="pattern_L1_17" width="350" height="350" patternUnits="userSpaceOnUse"><use xlink:href="#L1_17" x="-350" y="-350"/><use xlink:href="#L1_17" x="0" y="-350"/><use xlink:href="#L1_17" x="350" y="-350"/><use xlink:href="#L1_17" x="-350" y="0"/><use xlink:href="#L1_17" x="0" y="0"/><use xlink:href="#L1_17" x="350" y="0"/><use xlink:href="#L1_17" x="-350" y="350"/><use xlink:href="#L1_17" x="0" y="350"/><use xlink:href="#L1_17" x="350" y="350"/></pattern><rect x="0" y="0" width="100%" height="100%" fill="url(#pattern_L1_17)"/></g></svg>