<svg height="512pt" viewBox="-20 0 512 512" width="512pt" xmlns="http://www.w3.org/2000/svg"><path d="m299.535156 266.613281c4.144532 0 7.5-3.355469 7.5-7.5v-12.304687c0-4.140625-3.355468-7.5-7.5-7.5-4.140625 0-7.5 3.359375-7.5 7.5v12.304687c0 4.144531 3.359375 7.5 7.5 7.5zm0 0"/><path d="m172.972656 239.308594c-4.140625 0-7.5 3.359375-7.5 7.5v12.304687c0 4.144531 3.359375 7.5 7.5 7.5 4.144532 0 7.5-3.355469 7.5-7.5v-12.304687c0-4.140625-3.355468-7.5-7.5-7.5zm0 0"/><path d="m236.253906 284.460938c7.378906 0 14.3125-3.09375 19.027344-8.484376 2.726562-3.117187 2.40625-7.855468-.710938-10.582031-3.121093-2.726562-7.855468-2.40625-10.585937.710938-1.863281 2.132812-4.679687 3.355469-7.730469 3.355469-3.046875 0-5.867187-1.222657-7.730468-3.355469-2.726563-3.121094-7.464844-3.4375-10.582032-.710938-3.121094 2.726563-3.4375 7.464844-.710937 10.582031 4.710937 5.390626 11.648437 8.484376 19.023437 8.484376zm0 0"/><path d="m408.453125 452.417969 39.808594 44.582031h-73.503907c-4.144531 0-7.5 3.359375-7.5 7.5s3.355469 7.5 7.5 7.5h90.257813c4.050781-.042969 7.496094-3.421875 7.496094-7.5 0 0 0-496.71875 0-497 0-4.042969-3.457031-7.5-7.5-7.5h-320.253907c-4.144531 0-7.5 3.359375-7.5 7.5 0 4.144531 3.355469 7.5 7.5 7.5h303.503907l-39.808594 44.585938h-344.394531l-39.808594-44.585938h90.507812c4.140626 0 7.5-3.359375 7.5-7.5s-3.359374-7.5-7.5-7.5c0 0-107.21875 0-107.257812 0-4.050781 0-7.5 3.445312-7.5 7.5v497c0 4.058594 3.433594 7.5 7.5 7.5h.035156 337.222656c4.140626 0 7.5-3.359375 7.5-7.5s-3.359374-7.5-7.5-7.5h-320.507812l39.808594-44.582031zm49.058594-425.257813v457.679688l-38.199219-42.785156v-372.109376zm-53.199219 410.257813h-64.871094c-2.453125-41.730469-25.132812-64.503907-41.625-75.648438 29.3125-15.257812 51.730469-41.050781 61.585938-71.988281 17.472656-1.039062 31.371094-15.574219 31.371094-33.304688 0-8.324218-3.074219-15.941406-8.132813-21.792968-5.921875-50.558594-32.929687-93.660156-48.6875-115.046875-7.289063-9.894531-20.132813-14.757813-32.140625-12.214844-12.253906 2.59375-33.574219 5.683594-65.558594 5.683594-39.152344 0-76.03125 14.523437-103.84375 40.882812-23.191406 21.988281-37.769531 49.734375-42.269531 80.378907-5.222656 5.894531-8.402344 13.636718-8.402344 22.109374 0 17.726563 13.898438 32.265626 31.371094 33.304688 9.855469 30.9375 32.273437 56.730469 61.585937 71.988281-16.492187 11.140625-39.171874 33.917969-41.625 75.644531h-64.871093v-362.832031h336.113281zm-133.421875 0h-9.355469c-.671875-14.335938-3.09375-28.429688-5.347656-38.90625 4.507812-10.039063 5.785156-18.574219 6.441406-24.378907.597656-.117187 1.191406-.253906 1.785156-.382812 2.167969-.460938 4.332032-.960938 6.476563-1.527344zm-63.597656-79.234375c-38.839844-9.636719-71.757813-39.792969-81.617188-79.011719-7.222656-28.734375-1.886719-63.578125 17.867188-86.785156 3.304687-3.878907 8.496093-5.929688 13.554687-5.160157 8.335938 1.269532 16.769532 1.785157 25.199219 1.785157 29.539063 0 58.699219-6.109375 88.242187-6.109375 16.527344 0 33.050782 2.054687 48.765626 7.332031 7.804687 2.617187 14.289062 8.109375 18.269531 15.484375 12.035156 22.28125 15.433593 48.886719 9.261719 73.453125-8.957032 35.632813-36.773438 64.4375-72.894532 76.464844-12.109375 4.03125-24.925781 6.074219-37.683594 6.074219-9.492187 0-19.421874-1.160157-28.964843-3.527344zm-99.175781-114.527344c-.921876 9.984375-.5625 20.066406 1.085937 29.957031.015625.089844.027344.183594.039063.273438-7.261719-2.453125-12.503907-9.332031-12.503907-17.410157 0-7.527343 4.820313-14.488281 11.847657-17.167968-.125.988281-.234376 1.980468-.335938 2.972656-.046875.457031-.09375.917969-.132812 1.375zm-.609376-19.679688c5.726563-22.3125 17.730469-42.519531 35.222657-59.101562 25.011719-23.710938 58.226562-36.769531 93.527343-36.769531 33.277344 0 55.707032-3.269531 68.664063-6.011719 6.207031-1.3125 13.070313 1.164062 16.957031 6.4375 13.566406 18.410156 35.972656 53.8125 43.988282 95.65625-.070313-.019531-1.539063-.359375-2.210938-.484375-.972656-.183594-1.953125-.324219-2.9375-.433594-1.46875-5.316406-3.320312-10.539062-5.554688-15.652343-1.34375-3.074219-2.804687-6.097657-4.402343-9.050782-5.78125-10.707031-15.257813-18.71875-26.683594-22.554687-8.125-2.730469-16.566406-4.753907-25.449219-6.101563-.011718 0-.027344-.003906-.042968-.003906-9.320313-1.265625-18.632813-2.003906-28.046876-2.003906-15.65625 0-31.042968 1.601562-45.921874 3.148437-14.640626 1.519531-28.46875 2.960938-42.320313 2.960938-8.328125 0-15.832031-.527344-22.9375-1.613281-10.882813-1.660157-22.070313 3.066406-28.585937 11.925781-8.597657 11.691406-15.101563 24.945312-18.957032 38.941406-.015625.003906-.035156.007813-.050781.007813-1.429687.160156-2.863281.375-4.257813.703124zm255.796876 49.636719c1.058593-6.355469 1.597656-12.800781 1.597656-19.246093 0-5.078126-.324219-10.09375-.957032-15.046876 2.242188.863282 4.300782 2.15625 6.046876 3.804688 3.554687 3.351562 5.78125 8.09375 5.78125 13.351562 0 8.078126-5.246094 14.957032-12.507813 17.410157.015625-.089844.023437-.183594.039063-.273438zm-137.933594 103.21875c7.25.855469 14.515625.855469 21.765625 0-.617188 3.847657-1.648438 8.292969-3.671875 13.296875h-14.417969c-2.023437-5.003906-3.054687-9.449218-3.675781-13.296875zm-172.171875-306.886719v372.109376l-38.199219 42.785156v-457.679688zm133.417969 301.988282v65.484375h-38.519532c2.605469-38.082031 24.789063-57.214844 38.519532-65.484375zm15 .289062c.667968.175782 1.339843.332032 2.007812.496094 2.074219.515625 4.160156 1 6.253906 1.414062.660156 5.804688 1.9375 14.339844 6.441406 24.378907-2.25 10.476562-4.675781 24.570312-5.347656 38.90625h-9.355468zm24.367187 65.195313c.589844-11.589844 2.417969-23.074219 4.277344-32.289063h11.984375c1.859375 9.214844 3.6875 20.699219 4.28125 32.289063zm59.90625 0v-65.480469c13.730469 8.265625 35.914063 27.402344 38.519531 65.480469zm0 0"/></svg>